<svg width="30" height="39" viewBox="0 0 30 39" fill="none" xmlns="http://www.w3.org/2000/svg">
<path d="M4.00267 24.7628C1.3586 22.0638 0 18.5916 0 14.5027C0 10.4137 1.36142 6.98338 4.04205 4.2425C6.76206 1.42626 10.3006 0 14.5367 0C18.7729 0 22.3114 1.42626 25.0314 4.2425C27.7149 6.98059 29.0341 10.4527 29.0341 14.5027C29.0341 18.5526 27.7121 22.0638 25.0314 24.8019C22.3086 27.6181 18.7729 29.0444 14.5367 29.0444C10.3006 29.0444 6.76206 27.6181 4.00267 24.7628Z" fill="white"/>
<path d="M14.5368 32.9687C12.3821 32.9687 10.6129 32.4244 9.153 31.3442L5.41193 35.5197C7.93504 37.521 10.9898 38.5258 14.5368 38.5258C18.0837 38.5258 21.1413 37.521 23.6391 35.5421L19.9008 31.3722C18.4466 32.4551 16.683 32.9715 14.534 32.9715L14.5368 32.9687Z" fill="white"/>
</svg>
